<svg xmlns="http://www.w3.org/2000/svg" width="100%" viewBox="0 0 1600 620" role="img" aria-label="Code Architecture and Data Flow Map"><defs><marker id="arrow" markerWidth="12" markerHeight="12" refX="10" refY="6" orient="auto" markerUnits="strokeWidth"><path d="M 0 0 L 12 6 L 0 12 z" fill="#5a7388"/></marker></defs><rect x="0" y="0" width="100%" height="100%" fill="#ffffff"/><text x="800.0" y="34" text-anchor="middle" font-family="Arial, Helvetica, sans-serif" font-size="24" font-weight="700" fill="#10263f">Code Architecture and Data Flow Map</text><text x="800.0" y="60" text-anchor="middle" font-family="Arial, Helvetica, sans-serif" font-size="14" fill="#4b6075">System architecture view</text><rect x="50" y="90" width="1500" height="480" rx="22" ry="22" fill="#f8fbff" stroke="#a9bfd4" stroke-width="2"/><text x="74" y="124" font-family="Arial, Helvetica, sans-serif" font-size="20" font-weight="700" fill="#10263f">System architecture</text><rect x="110" y="170" width="250" height="64" rx="16" ry="16" fill="#f6ecd7" stroke="#5b7a99" stroke-width="2"/><text x="235.0" y="192.4" text-anchor="middle" font-family="Arial, Helvetica, sans-serif" font-size="16" font-weight="600" fill="#10263f"><tspan x="235.0" dy="0.0">Client surfaces</tspan><tspan x="235.0" dy="19.2">Qt / CLI / Service</tspan></text><rect x="420" y="170" width="330" height="64" rx="16" ry="16" fill="#eef5fb" stroke="#5b7a99" stroke-width="2"/><text x="585.0" y="192.4" text-anchor="middle" font-family="Arial, Helvetica, sans-serif" font-size="16" font-weight="600" fill="#10263f"><tspan x="585.0" dy="0.0">App orchestration</tspan><tspan x="585.0" dy="19.2">src/microseg/app</tspan></text><rect x="820" y="170" width="320" height="64" rx="16" ry="16" fill="#eef5fb" stroke="#5b7a99" stroke-width="2"/><text x="980.0" y="192.4" text-anchor="middle" font-family="Arial, Helvetica, sans-serif" font-size="16" font-weight="600" fill="#10263f"><tspan x="980.0" dy="0.0">Segmentation core</tspan><tspan x="980.0" dy="19.2">src/microseg</tspan></text><rect x="1190" y="170" width="280" height="64" rx="16" ry="16" fill="#eef5fb" stroke="#5b7a99" stroke-width="2"/><text x="1330.0" y="192.4" text-anchor="middle" font-family="Arial, Helvetica, sans-serif" font-size="16" font-weight="600" fill="#10263f"><tspan x="1330.0" dy="0.0">Data lifecycle</tspan><tspan x="1330.0" dy="19.2">prep + dataops</tspan></text><rect x="110" y="290" width="290" height="64" rx="16" ry="16" fill="#eaf6ea" stroke="#5b7a99" stroke-width="2"/><text x="255.0" y="322.0" text-anchor="middle" font-family="Arial, Helvetica, sans-serif" font-size="16" font-weight="600" fill="#10263f"><tspan x="255.0" dy="0.0">Configs + artifacts</tspan></text><rect x="460" y="290" width="290" height="64" rx="16" ry="16" fill="#f7efd8" stroke="#5b7a99" stroke-width="2"/><text x="605.0" y="322.0" text-anchor="middle" font-family="Arial, Helvetica, sans-serif" font-size="16" font-weight="600" fill="#10263f"><tspan x="605.0" dy="0.0">Training backends</tspan></text><rect x="820" y="290" width="290" height="64" rx="16" ry="16" fill="#eef5fb" stroke="#5b7a99" stroke-width="2"/><text x="965.0" y="322.0" text-anchor="middle" font-family="Arial, Helvetica, sans-serif" font-size="16" font-weight="600" fill="#10263f"><tspan x="965.0" dy="0.0">Governance + deployment</tspan></text><rect x="1180" y="290" width="300" height="64" rx="16" ry="16" fill="#eef5fb" stroke="#5b7a99" stroke-width="2"/><text x="1330.0" y="322.0" text-anchor="middle" font-family="Arial, Helvetica, sans-serif" font-size="16" font-weight="600" fill="#10263f"><tspan x="1330.0" dy="0.0">Compatibility layer</tspan></text><line x1="360" y1="202" x2="420" y2="202" stroke="#5a7388" stroke-width="3" marker-end="url(#arrow)"/><line x1="750" y1="202" x2="820" y2="202" stroke="#5a7388" stroke-width="3" marker-end="url(#arrow)"/><line x1="1140" y1="202" x2="1190" y2="202" stroke="#5a7388" stroke-width="3" marker-end="url(#arrow)"/><line x1="260" y1="266" x2="260" y2="290" stroke="#5a7388" stroke-width="3" marker-end="url(#arrow)"/><line x1="590" y1="266" x2="590" y2="290" stroke="#5a7388" stroke-width="3" marker-end="url(#arrow)"/><line x1="960" y1="266" x2="960" y2="290" stroke="#5a7388" stroke-width="3" marker-end="url(#arrow)"/><line x1="1330" y1="266" x2="1330" y2="290" stroke="#5a7388" stroke-width="3" marker-end="url(#arrow)"/><rect x="210" y="400" width="1180" height="72" rx="16" ry="16" fill="#ffffff" stroke="#d8dfe8" stroke-width="2"/><text x="800.0" y="436.0" text-anchor="middle" font-family="Arial, Helvetica, sans-serif" font-size="17" font-weight="500" fill="#10263f"><tspan x="800.0" dy="0.0">The layers remain modular: UI, orchestration, core pipelines, dataops, models, and deployment are separate.</tspan></text></svg>