<svg xmlns="http://www.w3.org/2000/svg" width="100%" viewBox="0 0 1600 420" role="img" aria-label="Code Architecture and Data Flow Map"><defs><marker id="arrow" markerWidth="12" markerHeight="12" refX="10" refY="6" orient="auto" markerUnits="strokeWidth"><path d="M 0 0 L 12 6 L 0 12 z" fill="#5a7388"/></marker></defs><rect x="0" y="0" width="100%" height="100%" fill="#ffffff"/><text x="800.0" y="34" text-anchor="middle" font-family="Arial, Helvetica, sans-serif" font-size="24" font-weight="700" fill="#10263f">Code Architecture and Data Flow Map</text><text x="800.0" y="60" text-anchor="middle" font-family="Arial, Helvetica, sans-serif" font-size="14" fill="#4b6075">End-to-end research-to-deployment flow</text><rect x="50" y="90" width="1500" height="280" rx="22" ry="22" fill="#f8fbff" stroke="#a9bfd4" stroke-width="2"/><text x="74" y="124" font-family="Arial, Helvetica, sans-serif" font-size="20" font-weight="700" fill="#10263f">End-to-end data flow</text><rect x="120" y="170" width="160" height="72" rx="16" ry="16" fill="#f6ecd7" stroke="#5b7a99" stroke-width="2"/><text x="200.0" y="196.4" text-anchor="middle" font-family="Arial, Helvetica, sans-serif" font-size="16" font-weight="600" fill="#10263f"><tspan x="200.0" dy="0.0">Raw images</tspan><tspan x="200.0" dy="19.2">+ masks</tspan></text><rect x="350" y="170" width="160" height="72" rx="16" ry="16" fill="#eef5fb" stroke="#5b7a99" stroke-width="2"/><text x="430.0" y="196.4" text-anchor="middle" font-family="Arial, Helvetica, sans-serif" font-size="16" font-weight="600" fill="#10263f"><tspan x="430.0" dy="0.0">Dataset</tspan><tspan x="430.0" dy="19.2">preparation</tspan></text><rect x="580" y="170" width="160" height="72" rx="16" ry="16" fill="#eef5fb" stroke="#5b7a99" stroke-width="2"/><text x="660.0" y="196.4" text-anchor="middle" font-family="Arial, Helvetica, sans-serif" font-size="16" font-weight="600" fill="#10263f"><tspan x="660.0" dy="0.0">Curated dataset</tspan><tspan x="660.0" dy="19.2">with manifests</tspan></text><rect x="830" y="170" width="160" height="72" rx="16" ry="16" fill="#eef5fb" stroke="#5b7a99" stroke-width="2"/><text x="910.0" y="206.0" text-anchor="middle" font-family="Arial, Helvetica, sans-serif" font-size="16" font-weight="600" fill="#10263f"><tspan x="910.0" dy="0.0">Training</tspan></text><rect x="1030" y="170" width="160" height="72" rx="16" ry="16" fill="#eef5fb" stroke="#5b7a99" stroke-width="2"/><text x="1110.0" y="196.4" text-anchor="middle" font-family="Arial, Helvetica, sans-serif" font-size="16" font-weight="600" fill="#10263f"><tspan x="1110.0" dy="0.0">Model checkpoints</tspan><tspan x="1110.0" dy="19.2">+ logs</tspan></text><rect x="1240" y="170" width="160" height="72" rx="16" ry="16" fill="#eef5fb" stroke="#5b7a99" stroke-width="2"/><text x="1320.0" y="196.4" text-anchor="middle" font-family="Arial, Helvetica, sans-serif" font-size="16" font-weight="600" fill="#10263f"><tspan x="1320.0" dy="0.0">Evaluation</tspan><tspan x="1320.0" dy="19.2">+ analysis</tspan></text><rect x="1450" y="170" width="160" height="72" rx="16" ry="16" fill="#eaf6ea" stroke="#5b7a99" stroke-width="2"/><text x="1530.0" y="196.4" text-anchor="middle" font-family="Arial, Helvetica, sans-serif" font-size="16" font-weight="600" fill="#10263f"><tspan x="1530.0" dy="0.0">Reports</tspan><tspan x="1530.0" dy="19.2">JSON / HTML / CSV</tspan></text><line x1="280" y1="206" x2="350" y2="206" stroke="#5a7388" stroke-width="3" marker-end="url(#arrow)"/><line x1="510" y1="206" x2="580" y2="206" stroke="#5a7388" stroke-width="3" marker-end="url(#arrow)"/><line x1="760" y1="206" x2="830" y2="206" stroke="#5a7388" stroke-width="3" marker-end="url(#arrow)"/><line x1="960" y1="206" x2="1030" y2="206" stroke="#5a7388" stroke-width="3" marker-end="url(#arrow)"/><line x1="1160" y1="206" x2="1240" y2="206" stroke="#5a7388" stroke-width="3" marker-end="url(#arrow)"/><line x1="1370" y1="206" x2="1450" y2="206" stroke="#5a7388" stroke-width="3" marker-end="url(#arrow)"/></svg>