<svg xmlns="http://www.w3.org/2000/svg" width="100%" viewBox="0 0 1700 2000" role="img" aria-label="Code Architecture and Data Flow Map"><defs><marker id="arrow" markerWidth="12" markerHeight="12" refX="10" refY="6" orient="auto" markerUnits="strokeWidth"><path d="M 0 0 L 12 6 L 0 12 z" fill="#5a7388"/></marker></defs><rect x="0" y="0" width="100%" height="100%" fill="#ffffff"/><text x="850.0" y="34" text-anchor="middle" font-family="Arial, Helvetica, sans-serif" font-size="24" font-weight="700" fill="#10263f">Code Architecture and Data Flow Map</text><text x="850.0" y="60" text-anchor="middle" font-family="Arial, Helvetica, sans-serif" font-size="14" fill="#4b6075">Three stacked views keep the repository map readable without a giant horizontal canvas.</text><rect x="50" y="90" width="1600" height="580" rx="22" ry="22" fill="#f8fbff" stroke="#a9bfd4" stroke-width="2"/><text x="74" y="124" font-family="Arial, Helvetica, sans-serif" font-size="20" font-weight="700" fill="#10263f">System architecture</text><rect x="110" y="250" width="250" height="64" rx="16" ry="16" fill="#f6ecd7" stroke="#5b7a99" stroke-width="2"/><text x="235.0" y="272.4" text-anchor="middle" font-family="Arial, Helvetica, sans-serif" font-size="16" font-weight="600" fill="#10263f"><tspan x="235.0" dy="0.0">Client surfaces</tspan><tspan x="235.0" dy="19.2">Qt / CLI / Service</tspan></text><rect x="420" y="250" width="330" height="64" rx="16" ry="16" fill="#eef5fb" stroke="#5b7a99" stroke-width="2"/><text x="585.0" y="272.4" text-anchor="middle" font-family="Arial, Helvetica, sans-serif" font-size="16" font-weight="600" fill="#10263f"><tspan x="585.0" dy="0.0">App orchestration</tspan><tspan x="585.0" dy="19.2">src/microseg/app</tspan></text><rect x="820" y="250" width="320" height="64" rx="16" ry="16" fill="#eef5fb" stroke="#5b7a99" stroke-width="2"/><text x="980.0" y="272.4" text-anchor="middle" font-family="Arial, Helvetica, sans-serif" font-size="16" font-weight="600" fill="#10263f"><tspan x="980.0" dy="0.0">Segmentation core</tspan><tspan x="980.0" dy="19.2">src/microseg</tspan></text><rect x="1190" y="250" width="290" height="64" rx="16" ry="16" fill="#eef5fb" stroke="#5b7a99" stroke-width="2"/><text x="1335.0" y="272.4" text-anchor="middle" font-family="Arial, Helvetica, sans-serif" font-size="16" font-weight="600" fill="#10263f"><tspan x="1335.0" dy="0.0">Data lifecycle</tspan><tspan x="1335.0" dy="19.2">prep + dataops</tspan></text><rect x="110" y="370" width="290" height="64" rx="16" ry="16" fill="#eaf6ea" stroke="#5b7a99" stroke-width="2"/><text x="255.0" y="392.4" text-anchor="middle" font-family="Arial, Helvetica, sans-serif" font-size="16" font-weight="600" fill="#10263f"><tspan x="255.0" dy="0.0">Configs + artifacts</tspan><tspan x="255.0" dy="19.2">configs, outputs, registry</tspan></text><rect x="460" y="370" width="290" height="64" rx="16" ry="16" fill="#f7efd8" stroke="#5b7a99" stroke-width="2"/><text x="605.0" y="392.4" text-anchor="middle" font-family="Arial, Helvetica, sans-serif" font-size="16" font-weight="600" fill="#10263f"><tspan x="605.0" dy="0.0">Training backends</tspan><tspan x="605.0" dy="19.2">unet / pixel / HF / SMP</tspan></text><rect x="820" y="370" width="290" height="64" rx="16" ry="16" fill="#eef5fb" stroke="#5b7a99" stroke-width="2"/><text x="965.0" y="392.4" text-anchor="middle" font-family="Arial, Helvetica, sans-serif" font-size="16" font-weight="600" fill="#10263f"><tspan x="965.0" dy="0.0">Governance + deployment</tspan><tspan x="965.0" dy="19.2">quality + deployment</tspan></text><rect x="1180" y="370" width="320" height="64" rx="16" ry="16" fill="#eef5fb" stroke="#5b7a99" stroke-width="2"/><text x="1340.0" y="392.4" text-anchor="middle" font-family="Arial, Helvetica, sans-serif" font-size="16" font-weight="600" fill="#10263f"><tspan x="1340.0" dy="0.0">Compatibility layer</tspan><tspan x="1340.0" dy="19.2">legacy adapters</tspan></text><line x1="360" y1="282" x2="420" y2="282" stroke="#5a7388" stroke-width="3" marker-end="url(#arrow)"/><line x1="750" y1="282" x2="820" y2="282" stroke="#5a7388" stroke-width="3" marker-end="url(#arrow)"/><line x1="1140" y1="282" x2="1190" y2="282" stroke="#5a7388" stroke-width="3" marker-end="url(#arrow)"/><line x1="260" y1="346" x2="260" y2="370" stroke="#5a7388" stroke-width="3" marker-end="url(#arrow)"/><line x1="590" y1="346" x2="590" y2="370" stroke="#5a7388" stroke-width="3" marker-end="url(#arrow)"/><line x1="960" y1="346" x2="960" y2="370" stroke="#5a7388" stroke-width="3" marker-end="url(#arrow)"/><line x1="1340" y1="346" x2="1340" y2="370" stroke="#5a7388" stroke-width="3" marker-end="url(#arrow)"/><rect x="200" y="472" width="1300" height="120" rx="16" ry="16" fill="#ffffff" stroke="#d8dfe8" stroke-width="2"/><text x="850.0" y="532.0" text-anchor="middle" font-family="Arial, Helvetica, sans-serif" font-size="18" font-weight="500" fill="#10263f"><tspan x="850.0" dy="0.0">The layers remain modular: UI, orchestration, core pipelines, dataops, models, and deployment are separate.</tspan></text><rect x="50" y="730" width="1600" height="410" rx="22" ry="22" fill="#f8fbff" stroke="#a9bfd4" stroke-width="2"/><text x="74" y="764" font-family="Arial, Helvetica, sans-serif" font-size="20" font-weight="700" fill="#10263f">End-to-end data flow</text><rect x="120" y="840" width="160" height="72" rx="16" ry="16" fill="#f6ecd7" stroke="#5b7a99" stroke-width="2"/><text x="200.0" y="866.4" text-anchor="middle" font-family="Arial, Helvetica, sans-serif" font-size="16" font-weight="600" fill="#10263f"><tspan x="200.0" dy="0.0">Raw images</tspan><tspan x="200.0" dy="19.2">+ masks</tspan></text><rect x="350" y="840" width="160" height="72" rx="16" ry="16" fill="#eef5fb" stroke="#5b7a99" stroke-width="2"/><text x="430.0" y="866.4" text-anchor="middle" font-family="Arial, Helvetica, sans-serif" font-size="16" font-weight="600" fill="#10263f"><tspan x="430.0" dy="0.0">Dataset</tspan><tspan x="430.0" dy="19.2">preparation</tspan></text><rect x="580" y="840" width="160" height="72" rx="16" ry="16" fill="#eef5fb" stroke="#5b7a99" stroke-width="2"/><text x="660.0" y="866.4" text-anchor="middle" font-family="Arial, Helvetica, sans-serif" font-size="16" font-weight="600" fill="#10263f"><tspan x="660.0" dy="0.0">Curated dataset</tspan><tspan x="660.0" dy="19.2">with manifests</tspan></text><rect x="830" y="840" width="160" height="72" rx="16" ry="16" fill="#eef5fb" stroke="#5b7a99" stroke-width="2"/><text x="910.0" y="876.0" text-anchor="middle" font-family="Arial, Helvetica, sans-serif" font-size="16" font-weight="600" fill="#10263f"><tspan x="910.0" dy="0.0">Training</tspan></text><rect x="1030" y="840" width="160" height="72" rx="16" ry="16" fill="#eef5fb" stroke="#5b7a99" stroke-width="2"/><text x="1110.0" y="866.4" text-anchor="middle" font-family="Arial, Helvetica, sans-serif" font-size="16" font-weight="600" fill="#10263f"><tspan x="1110.0" dy="0.0">Model checkpoints</tspan><tspan x="1110.0" dy="19.2">+ logs</tspan></text><rect x="1240" y="840" width="160" height="72" rx="16" ry="16" fill="#eef5fb" stroke="#5b7a99" stroke-width="2"/><text x="1320.0" y="866.4" text-anchor="middle" font-family="Arial, Helvetica, sans-serif" font-size="16" font-weight="600" fill="#10263f"><tspan x="1320.0" dy="0.0">Evaluation</tspan><tspan x="1320.0" dy="19.2">+ analysis</tspan></text><rect x="1450" y="840" width="160" height="72" rx="16" ry="16" fill="#eaf6ea" stroke="#5b7a99" stroke-width="2"/><text x="1530.0" y="866.4" text-anchor="middle" font-family="Arial, Helvetica, sans-serif" font-size="16" font-weight="600" fill="#10263f"><tspan x="1530.0" dy="0.0">Reports</tspan><tspan x="1530.0" dy="19.2">JSON / HTML / CSV</tspan></text><line x1="280" y1="876" x2="350" y2="876" stroke="#5a7388" stroke-width="3" marker-end="url(#arrow)"/><line x1="510" y1="876" x2="580" y2="876" stroke="#5a7388" stroke-width="3" marker-end="url(#arrow)"/><line x1="760" y1="876" x2="830" y2="876" stroke="#5a7388" stroke-width="3" marker-end="url(#arrow)"/><line x1="960" y1="876" x2="1030" y2="876" stroke="#5a7388" stroke-width="3" marker-end="url(#arrow)"/><line x1="1160" y1="876" x2="1240" y2="876" stroke="#5a7388" stroke-width="3" marker-end="url(#arrow)"/><line x1="1370" y1="876" x2="1450" y2="876" stroke="#5a7388" stroke-width="3" marker-end="url(#arrow)"/><rect x="1180" y="985" width="430" height="60" rx="16" ry="16" fill="#ffffff" stroke="#d8dfe8" stroke-width="2"/><text x="1395.0" y="1015.0" text-anchor="middle" font-family="Arial, Helvetica, sans-serif" font-size="16" font-weight="500" fill="#10263f"><tspan x="1395.0" dy="0.0">Package and promote only after validation passes.</tspan></text><line x1="1110" y1="912" x2="1180" y2="985" stroke="#5a7388" stroke-width="3" marker-end="url(#arrow)"/><line x1="1250" y1="912" x2="1395" y2="985" stroke="#5a7388" stroke-width="3" marker-end="url(#arrow)"/><rect x="50" y="1190" width="1600" height="700" rx="22" ry="22" fill="#f8fbff" stroke="#a9bfd4" stroke-width="2"/><text x="74" y="1224" font-family="Arial, Helvetica, sans-serif" font-size="20" font-weight="700" fill="#10263f">Qt runtime interaction</text><rect x="120" y="1340" width="160" height="72" rx="16" ry="16" fill="#f6ecd7" stroke="#5b7a99" stroke-width="2"/><text x="200.0" y="1376.0" text-anchor="middle" font-family="Arial, Helvetica, sans-serif" font-size="16" font-weight="600" fill="#10263f"><tspan x="200.0" dy="0.0">User</tspan></text><rect x="310" y="1340" width="160" height="72" rx="16" ry="16" fill="#eef5fb" stroke="#5b7a99" stroke-width="2"/><text x="390.0" y="1366.4" text-anchor="middle" font-family="Arial, Helvetica, sans-serif" font-size="16" font-weight="600" fill="#10263f"><tspan x="390.0" dy="0.0">GUI</tspan><tspan x="390.0" dy="19.2">main window</tspan></text><rect x="560" y="1340" width="160" height="72" rx="16" ry="16" fill="#eef5fb" stroke="#5b7a99" stroke-width="2"/><text x="640.0" y="1366.4" text-anchor="middle" font-family="Arial, Helvetica, sans-serif" font-size="16" font-weight="600" fill="#10263f"><tspan x="640.0" dy="0.0">Desktop</tspan><tspan x="640.0" dy="19.2">workflow</tspan></text><rect x="810" y="1340" width="160" height="72" rx="16" ry="16" fill="#eef5fb" stroke="#5b7a99" stroke-width="2"/><text x="890.0" y="1366.4" text-anchor="middle" font-family="Arial, Helvetica, sans-serif" font-size="16" font-weight="600" fill="#10263f"><tspan x="890.0" dy="0.0">Segmentation</tspan><tspan x="890.0" dy="19.2">pipeline</tspan></text><rect x="1060" y="1340" width="160" height="72" rx="16" ry="16" fill="#eef5fb" stroke="#5b7a99" stroke-width="2"/><text x="1140.0" y="1376.0" text-anchor="middle" font-family="Arial, Helvetica, sans-serif" font-size="16" font-weight="600" fill="#10263f"><tspan x="1140.0" dy="0.0">Predictor</tspan></text><rect x="1260" y="1340" width="160" height="72" rx="16" ry="16" fill="#eef5fb" stroke="#5b7a99" stroke-width="2"/><text x="1340.0" y="1376.0" text-anchor="middle" font-family="Arial, Helvetica, sans-serif" font-size="16" font-weight="600" fill="#10263f"><tspan x="1340.0" dy="0.0">Analyzer</tspan></text><rect x="1450" y="1340" width="160" height="72" rx="16" ry="16" fill="#eaf6ea" stroke="#5b7a99" stroke-width="2"/><text x="1530.0" y="1366.4" text-anchor="middle" font-family="Arial, Helvetica, sans-serif" font-size="16" font-weight="600" fill="#10263f"><tspan x="1530.0" dy="0.0">Export</tspan><tspan x="1530.0" dy="19.2">artifact</tspan></text><line x1="280" y1="1376" x2="310" y2="1376" stroke="#5a7388" stroke-width="3" marker-end="url(#arrow)"/><line x1="500" y1="1376" x2="560" y2="1376" stroke="#5a7388" stroke-width="3" marker-end="url(#arrow)"/><line x1="750" y1="1376" x2="810" y2="1376" stroke="#5a7388" stroke-width="3" marker-end="url(#arrow)"/><line x1="1000" y1="1376" x2="1060" y2="1376" stroke="#5a7388" stroke-width="3" marker-end="url(#arrow)"/><line x1="1200" y1="1376" x2="1260" y2="1376" stroke="#5a7388" stroke-width="3" marker-end="url(#arrow)"/><line x1="1400" y1="1376" x2="1450" y2="1376" stroke="#5a7388" stroke-width="3" marker-end="url(#arrow)"/><rect x="360" y="1480" width="980" height="78" rx="16" ry="16" fill="#ffffff" stroke="#d8dfe8" stroke-width="2"/><text x="850.0" y="1519.0" text-anchor="middle" font-family="Arial, Helvetica, sans-serif" font-size="16" font-weight="500" fill="#10263f"><tspan x="850.0" dy="0.0">The GUI and the core stay decoupled; the UI only receives status, result metadata, and export locations.</tspan></text><line x1="1460" y1="1412" x2="1110" y2="1480" stroke="#5a7388" stroke-width="3" marker-end="url(#arrow)"/><line x1="1060" y1="1412" x2="850" y2="1480" stroke="#5a7388" stroke-width="3" marker-end="url(#arrow)"/></svg>