<svg xmlns="http://www.w3.org/2000/svg" width="100%" viewBox="0 0 1600 520" role="img" aria-label="Code Architecture and Data Flow Map"><defs><marker id="arrow" markerWidth="12" markerHeight="12" refX="10" refY="6" orient="auto" markerUnits="strokeWidth"><path d="M 0 0 L 12 6 L 0 12 z" fill="#5a7388"/></marker></defs><rect x="0" y="0" width="100%" height="100%" fill="#ffffff"/><text x="800.0" y="34" text-anchor="middle" font-family="Arial, Helvetica, sans-serif" font-size="24" font-weight="700" fill="#10263f">Code Architecture and Data Flow Map</text><text x="800.0" y="60" text-anchor="middle" font-family="Arial, Helvetica, sans-serif" font-size="14" fill="#4b6075">Qt runtime interaction</text><rect x="50" y="90" width="1500" height="380" rx="22" ry="22" fill="#f8fbff" stroke="#a9bfd4" stroke-width="2"/><text x="74" y="124" font-family="Arial, Helvetica, sans-serif" font-size="20" font-weight="700" fill="#10263f">Qt runtime interaction</text><rect x="110" y="180" width="150" height="72" rx="16" ry="16" fill="#f6ecd7" stroke="#5b7a99" stroke-width="2"/><text x="185.0" y="216.0" text-anchor="middle" font-family="Arial, Helvetica, sans-serif" font-size="16" font-weight="600" fill="#10263f"><tspan x="185.0" dy="0.0">User</tspan></text><rect x="300" y="180" width="150" height="72" rx="16" ry="16" fill="#eef5fb" stroke="#5b7a99" stroke-width="2"/><text x="375.0" y="206.4" text-anchor="middle" font-family="Arial, Helvetica, sans-serif" font-size="16" font-weight="600" fill="#10263f"><tspan x="375.0" dy="0.0">GUI</tspan><tspan x="375.0" dy="19.2">main window</tspan></text><rect x="550" y="180" width="150" height="72" rx="16" ry="16" fill="#eef5fb" stroke="#5b7a99" stroke-width="2"/><text x="625.0" y="206.4" text-anchor="middle" font-family="Arial, Helvetica, sans-serif" font-size="16" font-weight="600" fill="#10263f"><tspan x="625.0" dy="0.0">Desktop</tspan><tspan x="625.0" dy="19.2">workflow</tspan></text><rect x="800" y="180" width="150" height="72" rx="16" ry="16" fill="#eef5fb" stroke="#5b7a99" stroke-width="2"/><text x="875.0" y="206.4" text-anchor="middle" font-family="Arial, Helvetica, sans-serif" font-size="16" font-weight="600" fill="#10263f"><tspan x="875.0" dy="0.0">Segmentation</tspan><tspan x="875.0" dy="19.2">pipeline</tspan></text><rect x="1050" y="180" width="150" height="72" rx="16" ry="16" fill="#eef5fb" stroke="#5b7a99" stroke-width="2"/><text x="1125.0" y="216.0" text-anchor="middle" font-family="Arial, Helvetica, sans-serif" font-size="16" font-weight="600" fill="#10263f"><tspan x="1125.0" dy="0.0">Predictor</tspan></text><rect x="1250" y="180" width="150" height="72" rx="16" ry="16" fill="#eef5fb" stroke="#5b7a99" stroke-width="2"/><text x="1325.0" y="216.0" text-anchor="middle" font-family="Arial, Helvetica, sans-serif" font-size="16" font-weight="600" fill="#10263f"><tspan x="1325.0" dy="0.0">Analyzer</tspan></text><rect x="1435" y="180" width="150" height="72" rx="16" ry="16" fill="#eaf6ea" stroke="#5b7a99" stroke-width="2"/><text x="1510.0" y="206.4" text-anchor="middle" font-family="Arial, Helvetica, sans-serif" font-size="16" font-weight="600" fill="#10263f"><tspan x="1510.0" dy="0.0">Export</tspan><tspan x="1510.0" dy="19.2">artifact</tspan></text><line x1="260" y1="216" x2="300" y2="216" stroke="#5a7388" stroke-width="3" marker-end="url(#arrow)"/><line x1="480" y1="216" x2="550" y2="216" stroke="#5a7388" stroke-width="3" marker-end="url(#arrow)"/><line x1="730" y1="216" x2="800" y2="216" stroke="#5a7388" stroke-width="3" marker-end="url(#arrow)"/><line x1="980" y1="216" x2="1050" y2="216" stroke="#5a7388" stroke-width="3" marker-end="url(#arrow)"/><line x1="1180" y1="216" x2="1250" y2="216" stroke="#5a7388" stroke-width="3" marker-end="url(#arrow)"/><line x1="1380" y1="216" x2="1435" y2="216" stroke="#5a7388" stroke-width="3" marker-end="url(#arrow)"/><rect x="320" y="310" width="960" height="70" rx="16" ry="16" fill="#ffffff" stroke="#d8dfe8" stroke-width="2"/><text x="800.0" y="345.0" text-anchor="middle" font-family="Arial, Helvetica, sans-serif" font-size="16" font-weight="500" fill="#10263f"><tspan x="800.0" dy="0.0">The GUI and the core stay decoupled; the UI only receives status, result metadata, and export locations.</tspan></text><line x1="1435" y1="252" x2="1100" y2="310" stroke="#5a7388" stroke-width="3" marker-end="url(#arrow)"/><line x1="1050" y1="252" x2="800" y2="310" stroke="#5a7388" stroke-width="3" marker-end="url(#arrow)"/></svg>