<svg xmlns="http://www.w3.org/2000/svg" width="100%" viewBox="0 0 1600 640" role="img" aria-label="Conventional Segmentation Pipeline"><defs><marker id="arrow" markerWidth="12" markerHeight="12" refX="10" refY="6" orient="auto" markerUnits="strokeWidth"><path d="M 0 0 L 12 6 L 0 12 z" fill="#5a7388"/></marker></defs><rect x="0" y="0" width="100%" height="100%" fill="#ffffff"/><text x="800.0" y="34" text-anchor="middle" font-family="Arial, Helvetica, sans-serif" font-size="24" font-weight="700" fill="#10263f">Conventional Segmentation Pipeline</text><text x="800.0" y="60" text-anchor="middle" font-family="Arial, Helvetica, sans-serif" font-size="14" fill="#4b6075">CPU-first flow sheet with the same scientific stages as the runtime baseline.</text><rect x="70" y="92" width="1460" height="500" rx="22" ry="22" fill="#f8fbff" stroke="#a9bfd4" stroke-width="2"/><text x="94" y="126" font-family="Arial, Helvetica, sans-serif" font-size="20" font-weight="700" fill="#10263f">Flow sheet</text><rect x="110" y="260" width="140" height="84" rx="16" ry="16" fill="#f6ecd7" stroke="#5b7a99" stroke-width="2"/><text x="180.0" y="291.8" text-anchor="middle" font-family="Arial, Helvetica, sans-serif" font-size="17" font-weight="600" fill="#10263f"><tspan x="180.0" dy="0.0">Input image</tspan><tspan x="180.0" dy="20.4">RGB or grayscale</tspan></text><rect x="285" y="260" width="145" height="84" rx="16" ry="16" fill="#eef5fb" stroke="#5b7a99" stroke-width="2"/><text x="357.5" y="291.8" text-anchor="middle" font-family="Arial, Helvetica, sans-serif" font-size="17" font-weight="600" fill="#10263f"><tspan x="357.5" dy="0.0">Load grayscale</tspan><tspan x="357.5" dy="20.4">view</tspan></text><rect x="460" y="260" width="145" height="84" rx="16" ry="16" fill="#fff3cf" stroke="#5b7a99" stroke-width="2"/><text x="532.5" y="291.8" text-anchor="middle" font-family="Arial, Helvetica, sans-serif" font-size="17" font-weight="600" fill="#10263f"><tspan x="532.5" dy="0.0">Crop bottom</tspan><tspan x="532.5" dy="20.4">region?</tspan></text><rect x="635" y="260" width="150" height="84" rx="16" ry="16" fill="#eef5fb" stroke="#5b7a99" stroke-width="2"/><text x="710.0" y="291.8" text-anchor="middle" font-family="Arial, Helvetica, sans-serif" font-size="17" font-weight="600" fill="#10263f"><tspan x="710.0" dy="0.0">CLAHE contrast</tspan><tspan x="710.0" dy="20.4">normalization</tspan></text><rect x="810" y="260" width="145" height="84" rx="16" ry="16" fill="#eef5fb" stroke="#5b7a99" stroke-width="2"/><text x="882.5" y="291.8" text-anchor="middle" font-family="Arial, Helvetica, sans-serif" font-size="17" font-weight="600" fill="#10263f"><tspan x="882.5" dy="0.0">Gaussian blur /</tspan><tspan x="882.5" dy="20.4">local smoothing</tspan></text><rect x="985" y="260" width="150" height="84" rx="16" ry="16" fill="#eef5fb" stroke="#5b7a99" stroke-width="2"/><text x="1060.0" y="291.8" text-anchor="middle" font-family="Arial, Helvetica, sans-serif" font-size="17" font-weight="600" fill="#10263f"><tspan x="1060.0" dy="0.0">Adaptive local</tspan><tspan x="1060.0" dy="20.4">threshold</tspan></text><rect x="1160" y="260" width="145" height="84" rx="16" ry="16" fill="#eef5fb" stroke="#5b7a99" stroke-width="2"/><text x="1232.5" y="291.8" text-anchor="middle" font-family="Arial, Helvetica, sans-serif" font-size="17" font-weight="600" fill="#10263f"><tspan x="1232.5" dy="0.0">Morphological</tspan><tspan x="1232.5" dy="20.4">closing</tspan></text><rect x="1335" y="260" width="165" height="84" rx="16" ry="16" fill="#eef5fb" stroke="#5b7a99" stroke-width="2"/><text x="1417.5" y="291.8" text-anchor="middle" font-family="Arial, Helvetica, sans-serif" font-size="17" font-weight="600" fill="#10263f"><tspan x="1417.5" dy="0.0">Connected-component</tspan><tspan x="1417.5" dy="20.4">labeling</tspan></text><line x1="250" y1="302" x2="285" y2="302" stroke="#5a7388" stroke-width="3" marker-end="url(#arrow)"/><line x1="425" y1="302" x2="460" y2="302" stroke="#5a7388" stroke-width="3" marker-end="url(#arrow)"/><line x1="600" y1="302" x2="635" y2="302" stroke="#5a7388" stroke-width="3" marker-end="url(#arrow)"/><line x1="785" y1="302" x2="810" y2="302" stroke="#5a7388" stroke-width="3" marker-end="url(#arrow)"/><line x1="960" y1="302" x2="985" y2="302" stroke="#5a7388" stroke-width="3" marker-end="url(#arrow)"/><line x1="1135" y1="302" x2="1160" y2="302" stroke="#5a7388" stroke-width="3" marker-end="url(#arrow)"/><line x1="1310" y1="302" x2="1335" y2="302" stroke="#5a7388" stroke-width="3" marker-end="url(#arrow)"/><polygon points="660,376 720,340 780,376 720,412" fill="#fdf4d9" stroke="#b28b3e" stroke-width="2"/><text x="720.0" y="365.2" text-anchor="middle" font-family="Arial, Helvetica, sans-serif" font-size="18" font-weight="700" fill="#10263f"><tspan x="720.0" dy="0.0">Crop</tspan><tspan x="720.0" dy="21.6">bottom?</tspan></text><line x1="720" y1="344" x2="720" y2="260" stroke="#5a7388" stroke-width="3" marker-end="url(#arrow)"/><line x1="720" y1="412" x2="720" y2="260" stroke="#5a7388" stroke-width="3" marker-end="url(#arrow)"/><rect x="605" y="440" width="230" height="64" rx="16" ry="16" fill="#eaf6ea" stroke="#5d8d5d" stroke-width="2"/><text x="720.0" y="472.0" text-anchor="middle" font-family="Arial, Helvetica, sans-serif" font-size="19" font-weight="600" fill="#10263f"><tspan x="720.0" dy="0.0">Area-based filtering</tspan></text><rect x="855" y="440" width="220" height="64" rx="16" ry="16" fill="#e8f0fb" stroke="#5b7a99" stroke-width="2"/><text x="965.0" y="472.0" text-anchor="middle" font-family="Arial, Helvetica, sans-serif" font-size="20" font-weight="600" fill="#10263f"><tspan x="965.0" dy="0.0">Binary mask</tspan></text><rect x="1095" y="440" width="250" height="64" rx="16" ry="16" fill="#eef5fb" stroke="#5b7a99" stroke-width="2"/><text x="1220.0" y="461.2" text-anchor="middle" font-family="Arial, Helvetica, sans-serif" font-size="18" font-weight="600" fill="#10263f"><tspan x="1220.0" dy="0.0">Optional overlay /</tspan><tspan x="1220.0" dy="21.6">contour preview</tspan></text><rect x="1365" y="440" width="180" height="64" rx="16" ry="16" fill="#eef5fb" stroke="#5b7a99" stroke-width="2"/><text x="1455.0" y="461.2" text-anchor="middle" font-family="Arial, Helvetica, sans-serif" font-size="18" font-weight="600" fill="#10263f"><tspan x="1455.0" dy="0.0">ORA export</tspan><tspan x="1455.0" dy="21.6">and/or PNG mask</tspan></text><line x1="1395" y1="344" x2="1395" y2="440" stroke="#5a7388" stroke-width="3" marker-end="url(#arrow)"/><line x1="720" y1="412" x2="720" y2="440" stroke="#5a7388" stroke-width="3" marker-end="url(#arrow)"/><line x1="835" y1="472" x2="855" y2="472" stroke="#5a7388" stroke-width="3" marker-end="url(#arrow)"/><line x1="1075" y1="472" x2="1095" y2="472" stroke="#5a7388" stroke-width="3" marker-end="url(#arrow)"/><line x1="1345" y1="472" x2="1365" y2="472" stroke="#5a7388" stroke-width="3" marker-end="url(#arrow)"/></svg>