<svg xmlns="http://www.w3.org/2000/svg" width="100%" viewBox="0 0 1600 740" role="img" aria-label="Deployment And Productization Roadmap"><defs><marker id="arrow" markerWidth="12" markerHeight="12" refX="10" refY="6" orient="auto" markerUnits="strokeWidth"><path d="M 0 0 L 12 6 L 0 12 z" fill="#5a7388"/></marker></defs><rect x="0" y="0" width="100%" height="100%" fill="#ffffff"/><text x="800.0" y="34" text-anchor="middle" font-family="Arial, Helvetica, sans-serif" font-size="24" font-weight="700" fill="#10263f">Deployment And Productization Roadmap</text><text x="800.0" y="60" text-anchor="middle" font-family="Arial, Helvetica, sans-serif" font-size="14" fill="#4b6075">Build-and-gate on the left, deploy-and-learn on the right.</text><rect x="70" y="92" width="1460" height="560" rx="22" ry="22" fill="#f8fbff" stroke="#a9bfd4" stroke-width="2"/><text x="94" y="126" font-family="Arial, Helvetica, sans-serif" font-size="20" font-weight="700" fill="#10263f">Target operating architecture</text><rect x="510" y="126" width="580" height="66" rx="16" ry="16" fill="#f6ecd7" stroke="#b28b3e" stroke-width="2"/><text x="800.0" y="147.0" text-anchor="middle" font-family="Arial, Helvetica, sans-serif" font-size="20" font-weight="600" fill="#10263f"><tspan x="800.0" dy="0.0">Dataset contract</tspan><tspan x="800.0" dy="24.0">(train / val / test + manifest)</tspan></text><line x1="800" y1="192" x2="800" y2="236" stroke="#5a7388" stroke-width="3" marker-end="url(#arrow)"/><rect x="130" y="240" width="610" height="320" rx="22" ry="22" fill="#f8fbff" stroke="#a9bfd4" stroke-width="2"/><text x="154" y="274" font-family="Arial, Helvetica, sans-serif" font-size="20" font-weight="700" fill="#10263f">Build and gate</text><rect x="860" y="240" width="610" height="320" rx="22" ry="22" fill="#f8fbff" stroke="#a9bfd4" stroke-width="2"/><text x="884" y="274" font-family="Arial, Helvetica, sans-serif" font-size="20" font-weight="700" fill="#10263f">Deploy and learn</text><rect x="180" y="292" width="500" height="54" rx="16" ry="16" fill="#eef5fb" stroke="#5b7a99" stroke-width="2"/><text x="430.0" y="319.0" text-anchor="middle" font-family="Arial, Helvetica, sans-serif" font-size="18" font-weight="600" fill="#10263f"><tspan x="430.0" dy="0.0">Train / eval orchestration</tspan></text><rect x="180" y="370" width="500" height="54" rx="16" ry="16" fill="#eef5fb" stroke="#5b7a99" stroke-width="2"/><text x="430.0" y="397.0" text-anchor="middle" font-family="Arial, Helvetica, sans-serif" font-size="18" font-weight="600" fill="#10263f"><tspan x="430.0" dy="0.0">Benchmark artifacts</tspan></text><rect x="180" y="448" width="500" height="54" rx="16" ry="16" fill="#eef5fb" stroke="#5b7a99" stroke-width="2"/><text x="430.0" y="475.0" text-anchor="middle" font-family="Arial, Helvetica, sans-serif" font-size="18" font-weight="600" fill="#10263f"><tspan x="430.0" dy="0.0">Promotion gate</tspan></text><rect x="930" y="292" width="500" height="54" rx="16" ry="16" fill="#eef5fb" stroke="#5b7a99" stroke-width="2"/><text x="1180.0" y="319.0" text-anchor="middle" font-family="Arial, Helvetica, sans-serif" font-size="18" font-weight="600" fill="#10263f"><tspan x="1180.0" dy="0.0">Deployment package</tspan></text><rect x="930" y="370" width="500" height="54" rx="16" ry="16" fill="#eef5fb" stroke="#5b7a99" stroke-width="2"/><text x="1180.0" y="397.0" text-anchor="middle" font-family="Arial, Helvetica, sans-serif" font-size="18" font-weight="600" fill="#10263f"><tspan x="1180.0" dy="0.0">Runtime inference app</tspan></text><rect x="930" y="448" width="500" height="54" rx="16" ry="16" fill="#eef5fb" stroke="#5b7a99" stroke-width="2"/><text x="1180.0" y="475.0" text-anchor="middle" font-family="Arial, Helvetica, sans-serif" font-size="18" font-weight="600" fill="#10263f"><tspan x="1180.0" dy="0.0">Ops feedback</tspan></text><line x1="430" y1="346" x2="430" y2="370" stroke="#5a7388" stroke-width="3" marker-end="url(#arrow)"/><line x1="430" y1="424" x2="430" y2="448" stroke="#5a7388" stroke-width="3" marker-end="url(#arrow)"/><line x1="430" y1="502" x2="800" y2="502" stroke="#5a7388" stroke-width="3" marker-end="url(#arrow)"/><line x1="1060" y1="346" x2="1060" y2="370" stroke="#5a7388" stroke-width="3" marker-end="url(#arrow)"/><line x1="1060" y1="424" x2="1060" y2="448" stroke="#5a7388" stroke-width="3" marker-end="url(#arrow)"/><line x1="1060" y1="502" x2="800" y2="502" stroke="#5a7388" stroke-width="3" marker-end="url(#arrow)"/><rect x="520" y="558" width="560" height="52" rx="16" ry="16" fill="#eaf6ea" stroke="#5d8d5d" stroke-width="2"/><text x="800.0" y="584.0" text-anchor="middle" font-family="Arial, Helvetica, sans-serif" font-size="16" font-weight="500" fill="#10263f"><tspan x="800.0" dy="0.0">Quality, robustness, runtime, and reproducibility are the promotion gates.</tspan></text></svg>