<svg xmlns="http://www.w3.org/2000/svg" width="100%" viewBox="0 0 1600 720" role="img" aria-label="GUI Sidebar Redesign"><defs><marker id="arrow" markerWidth="12" markerHeight="12" refX="10" refY="6" orient="auto" markerUnits="strokeWidth"><path d="M 0 0 L 12 6 L 0 12 z" fill="#5a7388"/></marker></defs><rect x="0" y="0" width="100%" height="100%" fill="#ffffff"/><text x="800.0" y="34" text-anchor="middle" font-family="Arial, Helvetica, sans-serif" font-size="24" font-weight="700" fill="#10263f">GUI Sidebar Redesign</text><text x="800.0" y="60" text-anchor="middle" font-family="Arial, Helvetica, sans-serif" font-size="14" fill="#4b6075">Left: the earlier cramped control rail. Right: the grouped layout with clearer spacing and hierarchy.</text><rect x="60" y="92" width="1480" height="620" rx="22" ry="22" fill="#f8fbff" stroke="#a9bfd4" stroke-width="2"/><text x="84" y="126" font-family="Arial, Helvetica, sans-serif" font-size="20" font-weight="700" fill="#10263f">Before vs after</text><rect x="95" y="150" width="650" height="500" rx="22" ry="22" fill="#fff7f2" stroke="#d69b7a" stroke-width="2"/><text x="119" y="184" font-family="Arial, Helvetica, sans-serif" font-size="20" font-weight="700" fill="#10263f">Before</text><rect x="855" y="150" width="650" height="500" rx="22" ry="22" fill="#f3faf3" stroke="#7ca67c" stroke-width="2"/><text x="879" y="184" font-family="Arial, Helvetica, sans-serif" font-size="20" font-weight="700" fill="#10263f">After</text><rect x="125" y="208" width="570" height="52" rx="16" ry="16" fill="#ffffff" stroke="#e0b89f" stroke-width="2"/><text x="410.0" y="234.0" text-anchor="middle" font-family="Arial, Helvetica, sans-serif" font-size="17" font-weight="500" fill="#10263f"><tspan x="410.0" dy="0.0">Tiny single-row controls, long labels clipped, many competing actions</tspan></text><rect x="130" y="300" width="86" height="44" rx="16" ry="16" fill="#ffffff" stroke="#5b7a99" stroke-width="2"/><text x="173.0" y="322.0" text-anchor="middle" font-family="Arial, Helvetica, sans-serif" font-size="15" font-weight="600" fill="#10263f"><tspan x="173.0" dy="0.0">Tool</tspan></text><rect x="226" y="300" width="86" height="44" rx="16" ry="16" fill="#ffffff" stroke="#5b7a99" stroke-width="2"/><text x="269.0" y="322.0" text-anchor="middle" font-family="Arial, Helvetica, sans-serif" font-size="15" font-weight="600" fill="#10263f"><tspan x="269.0" dy="0.0">Mode</tspan></text><rect x="322" y="300" width="86" height="44" rx="16" ry="16" fill="#ffffff" stroke="#5b7a99" stroke-width="2"/><text x="365.0" y="322.0" text-anchor="middle" font-family="Arial, Helvetica, sans-serif" font-size="15" font-weight="600" fill="#10263f"><tspan x="365.0" dy="0.0">Class</tspan></text><rect x="418" y="300" width="86" height="44" rx="16" ry="16" fill="#ffffff" stroke="#5b7a99" stroke-width="2"/><text x="461.0" y="322.0" text-anchor="middle" font-family="Arial, Helvetica, sans-serif" font-size="15" font-weight="600" fill="#10263f"><tspan x="461.0" dy="0.0">Brush</tspan></text><rect x="514" y="300" width="86" height="44" rx="16" ry="16" fill="#ffffff" stroke="#5b7a99" stroke-width="2"/><text x="557.0" y="322.0" text-anchor="middle" font-family="Arial, Helvetica, sans-serif" font-size="15" font-weight="600" fill="#10263f"><tspan x="557.0" dy="0.0">Undo</tspan></text><rect x="610" y="300" width="86" height="44" rx="16" ry="16" fill="#ffffff" stroke="#5b7a99" stroke-width="2"/><text x="653.0" y="322.0" text-anchor="middle" font-family="Arial, Helvetica, sans-serif" font-size="15" font-weight="600" fill="#10263f"><tspan x="653.0" dy="0.0">+</tspan></text><rect x="130" y="370" width="150" height="44" rx="16" ry="16" fill="#ffffff" stroke="#5b7a99" stroke-width="2"/><text x="205.0" y="392.0" text-anchor="middle" font-family="Arial, Helvetica, sans-serif" font-size="15" font-weight="600" fill="#10263f"><tspan x="205.0" dy="0.0">Export Batch</tspan></text><rect x="290" y="370" width="170" height="44" rx="16" ry="16" fill="#ffffff" stroke="#5b7a99" stroke-width="2"/><text x="375.0" y="392.0" text-anchor="middle" font-family="Arial, Helvetica, sans-serif" font-size="15" font-weight="600" fill="#10263f"><tspan x="375.0" dy="0.0">Export Corrected</tspan></text><rect x="470" y="370" width="160" height="44" rx="16" ry="16" fill="#ffffff" stroke="#5b7a99" stroke-width="2"/><text x="550.0" y="392.0" text-anchor="middle" font-family="Arial, Helvetica, sans-serif" font-size="15" font-weight="600" fill="#10263f"><tspan x="550.0" dy="0.0">Save / Load</tspan></text><rect x="130" y="440" width="570" height="72" rx="16" ry="16" fill="#ffffff" stroke="#5b7a99" stroke-width="2"/><text x="415.0" y="476.0" text-anchor="middle" font-family="Arial, Helvetica, sans-serif" font-size="15" font-weight="600" fill="#10263f"><tspan x="415.0" dy="0.0">Advanced report options, metrics, and session buttons all stacked into one narrow rail</tspan></text><rect x="885" y="208" width="570" height="52" rx="16" ry="16" fill="#ffffff" stroke="#b8d8b8" stroke-width="2"/><text x="1170.0" y="234.0" text-anchor="middle" font-family="Arial, Helvetica, sans-serif" font-size="17" font-weight="500" fill="#10263f"><tspan x="1170.0" dy="0.0">Grouped into readable cards with two-column actions and more air</tspan></text><rect x="900" y="282" width="540" height="108" rx="22" ry="22" fill="#f8fbff" stroke="#a9bfd4" stroke-width="2"/><text x="924" y="316" font-family="Arial, Helvetica, sans-serif" font-size="20" font-weight="700" fill="#10263f">Quick start</text><rect x="930" y="326" width="210" height="36" rx="16" ry="16" fill="#eef5fb" stroke="#5b7a99" stroke-width="2"/><text x="1035.0" y="344.0" text-anchor="middle" font-family="Arial, Helvetica, sans-serif" font-size="15" font-weight="600" fill="#10263f"><tspan x="1035.0" dy="0.0">Image path + Load</tspan></text><rect x="1150" y="326" width="230" height="36" rx="16" ry="16" fill="#eef5fb" stroke="#5b7a99" stroke-width="2"/><text x="1265.0" y="344.0" text-anchor="middle" font-family="Arial, Helvetica, sans-serif" font-size="15" font-weight="600" fill="#10263f"><tspan x="1265.0" dy="0.0">Sample + Model</tspan></text><rect x="900" y="404" width="540" height="112" rx="22" ry="22" fill="#f8fbff" stroke="#a9bfd4" stroke-width="2"/><text x="924" y="438" font-family="Arial, Helvetica, sans-serif" font-size="20" font-weight="700" fill="#10263f">Correction tools</text><rect x="930" y="448" width="150" height="36" rx="16" ry="16" fill="#eef5fb" stroke="#5b7a99" stroke-width="2"/><text x="1005.0" y="466.0" text-anchor="middle" font-family="Arial, Helvetica, sans-serif" font-size="15" font-weight="600" fill="#10263f"><tspan x="1005.0" dy="0.0">Tool / Mode</tspan></text><rect x="1090" y="448" width="150" height="36" rx="16" ry="16" fill="#eef5fb" stroke="#5b7a99" stroke-width="2"/><text x="1165.0" y="466.0" text-anchor="middle" font-family="Arial, Helvetica, sans-serif" font-size="15" font-weight="600" fill="#10263f"><tspan x="1165.0" dy="0.0">Class / Brush</tspan></text><rect x="1250" y="448" width="160" height="36" rx="16" ry="16" fill="#eef5fb" stroke="#5b7a99" stroke-width="2"/><text x="1330.0" y="466.0" text-anchor="middle" font-family="Arial, Helvetica, sans-serif" font-size="15" font-weight="600" fill="#10263f"><tspan x="1330.0" dy="0.0">Undo / Redo</tspan></text><rect x="900" y="526" width="540" height="92" rx="22" ry="22" fill="#f8fbff" stroke="#a9bfd4" stroke-width="2"/><text x="924" y="560" font-family="Arial, Helvetica, sans-serif" font-size="20" font-weight="700" fill="#10263f">Export + session</text><rect x="930" y="564" width="160" height="30" rx="16" ry="16" fill="#eaf6ea" stroke="#5b7a99" stroke-width="2"/><text x="1010.0" y="579.0" text-anchor="middle" font-family="Arial, Helvetica, sans-serif" font-size="14" font-weight="600" fill="#10263f"><tspan x="1010.0" dy="0.0">Export</tspan></text><rect x="1100" y="564" width="160" height="30" rx="16" ry="16" fill="#eaf6ea" stroke="#5b7a99" stroke-width="2"/><text x="1180.0" y="579.0" text-anchor="middle" font-family="Arial, Helvetica, sans-serif" font-size="14" font-weight="600" fill="#10263f"><tspan x="1180.0" dy="0.0">Save</tspan></text><rect x="1270" y="564" width="140" height="30" rx="16" ry="16" fill="#eaf6ea" stroke="#5b7a99" stroke-width="2"/><text x="1340.0" y="579.0" text-anchor="middle" font-family="Arial, Helvetica, sans-serif" font-size="14" font-weight="600" fill="#10263f"><tspan x="1340.0" dy="0.0">Load</tspan></text></svg>