<svg xmlns="http://www.w3.org/2000/svg" width="100%" viewBox="0 0 1600 760" role="img" aria-label="Beginner Learning Path"><defs><marker id="arrow" markerWidth="12" markerHeight="12" refX="10" refY="6" orient="auto" markerUnits="strokeWidth"><path d="M 0 0 L 12 6 L 0 12 z" fill="#5a7388"/></marker></defs><rect x="0" y="0" width="100%" height="100%" fill="#ffffff"/><text x="800.0" y="34" text-anchor="middle" font-family="Arial, Helvetica, sans-serif" font-size="24" font-weight="700" fill="#10263f">Beginner Learning Path</text><text x="800.0" y="60" text-anchor="middle" font-family="Arial, Helvetica, sans-serif" font-size="14" fill="#4b6075">Read first on the left, then do and review on the right.</text><rect x="70" y="92" width="1460" height="620" rx="22" ry="22" fill="#f8fbff" stroke="#a9bfd4" stroke-width="2"/><text x="94" y="126" font-family="Arial, Helvetica, sans-serif" font-size="20" font-weight="700" fill="#10263f">Recommended flow</text><rect x="540" y="128" width="520" height="74" rx="16" ry="16" fill="#f6ecd7" stroke="#b28b3e" stroke-width="2"/><text x="800.0" y="165.0" text-anchor="middle" font-family="Arial, Helvetica, sans-serif" font-size="24" font-weight="600" fill="#10263f"><tspan x="800.0" dy="0.0">Mission + principles</tspan></text><line x1="800" y1="202" x2="800" y2="244" stroke="#5a7388" stroke-width="3" marker-end="url(#arrow)"/><rect x="110" y="250" width="610" height="330" rx="22" ry="22" fill="#fbfdff" stroke="#a9bfd4" stroke-width="2"/><text x="134" y="284" font-family="Arial, Helvetica, sans-serif" font-size="20" font-weight="700" fill="#10263f">Read first</text><rect x="880" y="250" width="610" height="330" rx="22" ry="22" fill="#fbfdff" stroke="#a9bfd4" stroke-width="2"/><text x="904" y="284" font-family="Arial, Helvetica, sans-serif" font-size="20" font-weight="700" fill="#10263f">Do and review</text><rect x="170" y="300" width="450" height="58" rx="16" ry="16" fill="#e8f0fb" stroke="#5b7a99" stroke-width="2"/><text x="395.0" y="329.0" text-anchor="middle" font-family="Arial, Helvetica, sans-serif" font-size="20" font-weight="600" fill="#10263f"><tspan x="395.0" dy="0.0">Glossary + learning path</tspan></text><rect x="170" y="390" width="450" height="62" rx="16" ry="16" fill="#eef5fb" stroke="#5b7a99" stroke-width="2"/><text x="395.0" y="409.0" text-anchor="middle" font-family="Arial, Helvetica, sans-serif" font-size="20" font-weight="600" fill="#10263f"><tspan x="395.0" dy="0.0">Notebook 01</tspan><tspan x="395.0" dy="24.0">Data preparation</tspan></text><rect x="170" y="485" width="450" height="62" rx="16" ry="16" fill="#eef5fb" stroke="#5b7a99" stroke-width="2"/><text x="395.0" y="504.0" text-anchor="middle" font-family="Arial, Helvetica, sans-serif" font-size="20" font-weight="600" fill="#10263f"><tspan x="395.0" dy="0.0">Notebook 02</tspan><tspan x="395.0" dy="24.0">Training + inference</tspan></text><rect x="940" y="300" width="450" height="62" rx="16" ry="16" fill="#f7efd8" stroke="#5b7a99" stroke-width="2"/><text x="1165.0" y="319.0" text-anchor="middle" font-family="Arial, Helvetica, sans-serif" font-size="20" font-weight="600" fill="#10263f"><tspan x="1165.0" dy="0.0">GUI</tspan><tspan x="1165.0" dy="24.0">Inspect, compare, correct</tspan></text><rect x="940" y="390" width="450" height="62" rx="16" ry="16" fill="#eef5fb" stroke="#5b7a99" stroke-width="2"/><text x="1165.0" y="409.0" text-anchor="middle" font-family="Arial, Helvetica, sans-serif" font-size="20" font-weight="600" fill="#10263f"><tspan x="1165.0" dy="0.0">Notebook 03</tspan><tspan x="1165.0" dy="24.0">Correction + export</tspan></text><rect x="940" y="485" width="450" height="62" rx="16" ry="16" fill="#eef5fb" stroke="#5b7a99" stroke-width="2"/><text x="1165.0" y="504.0" text-anchor="middle" font-family="Arial, Helvetica, sans-serif" font-size="20" font-weight="600" fill="#10263f"><tspan x="1165.0" dy="0.0">Notebook 04</tspan><tspan x="1165.0" dy="24.0">Evaluation + reports</tspan></text><rect x="540" y="580" width="520" height="64" rx="16" ry="16" fill="#eaf6ea" stroke="#5d8d5d" stroke-width="2"/><text x="800.0" y="612.0" text-anchor="middle" font-family="Arial, Helvetica, sans-serif" font-size="21" font-weight="600" fill="#10263f"><tspan x="800.0" dy="0.0">Contribute new experiments</tspan></text><line x1="800" y1="560" x2="800" y2="580" stroke="#5a7388" stroke-width="3" marker-end="url(#arrow)"/><line x1="620" y1="356" x2="620" y2="417" stroke="#5a7388" stroke-width="3" marker-end="url(#arrow)"/><line x1="620" y1="455" x2="620" y2="485" stroke="#5a7388" stroke-width="3" marker-end="url(#arrow)"/><line x1="1380" y1="356" x2="1380" y2="421" stroke="#5a7388" stroke-width="3" marker-end="url(#arrow)"/><line x1="1380" y1="453" x2="1380" y2="517" stroke="#5a7388" stroke-width="3" marker-end="url(#arrow)"/><line x1="620" y1="516" x2="540" y2="612" stroke="#5a7388" stroke-width="3" marker-end="url(#arrow)"/><line x1="1380" y1="548" x2="1060" y2="612" stroke="#5a7388" stroke-width="3" marker-end="url(#arrow)"/><line x1="800" y1="646" x2="800" y2="706" stroke="#5a7388" stroke-width="3" marker-end="url(#arrow)"/><rect x="500" y="692" width="600" height="48" rx="16" ry="16" fill="#f8fbff" stroke="#a9bfd4" stroke-width="2"/><text x="800.0" y="716.0" text-anchor="middle" font-family="Arial, Helvetica, sans-serif" font-size="16" font-weight="500" fill="#10263f"><tspan x="800.0" dy="0.0">Start with sample data and the notebook ladder before larger datasets.</tspan></text></svg>