<svg xmlns="http://www.w3.org/2000/svg" width="100%" viewBox="0 0 1680 1700" role="img" aria-label="Model Architecture Manuscript Foundation"><defs><marker id="arrow" markerWidth="12" markerHeight="12" refX="10" refY="6" orient="auto" markerUnits="strokeWidth"><path d="M 0 0 L 12 6 L 0 12 z" fill="#5a7388"/></marker></defs><rect x="0" y="0" width="100%" height="100%" fill="#ffffff"/><text x="840.0" y="34" text-anchor="middle" font-family="Arial, Helvetica, sans-serif" font-size="24" font-weight="700" fill="#10263f">Model Architecture Manuscript Foundation</text><text x="840.0" y="60" text-anchor="middle" font-family="Arial, Helvetica, sans-serif" font-size="14" fill="#4b6075">A stacked SVG keeps the family overview and the backend-specific flows compact.</text><rect x="70" y="86" width="1540" height="340" rx="22" ry="22" fill="#f8fbff" stroke="#a9bfd4" stroke-width="2"/><text x="94" y="120" font-family="Arial, Helvetica, sans-serif" font-size="20" font-weight="700" fill="#10263f">Architecture overview</text><rect x="650" y="130" width="380" height="60" rx="16" ry="16" fill="#f6ecd7" stroke="#b28b3e" stroke-width="2"/><text x="840.0" y="160.0" text-anchor="middle" font-family="Arial, Helvetica, sans-serif" font-size="22" font-weight="600" fill="#10263f"><tspan x="840.0" dy="0.0">Input image</tspan></text><line x1="840" y1="190" x2="840" y2="226" stroke="#5a7388" stroke-width="3" marker-end="url(#arrow)"/><rect x="110" y="230" width="1460" height="160" rx="22" ry="22" fill="#f8fbff" stroke="#a9bfd4" stroke-width="2"/><text x="134" y="264" font-family="Arial, Helvetica, sans-serif" font-size="20" font-weight="700" fill="#10263f">Model families</text><rect x="170" y="276" width="330" height="26" rx="10" ry="10" fill="#eef5fb" stroke="#8aa4bf" stroke-width="2"/><text x="335.0" y="289.0" text-anchor="middle" font-family="Arial, Helvetica, sans-serif" font-size="14" font-weight="700" fill="#10263f"><tspan x="335.0" dy="0.0">CNN family</tspan></text><rect x="170" y="312" width="270" height="26" rx="10" ry="10" fill="#ffffff" stroke="#c9d6e4" stroke-width="2"/><text x="305.0" y="325.0" text-anchor="middle" font-family="Arial, Helvetica, sans-serif" font-size="13" font-weight="500" fill="#10263f"><tspan x="305.0" dy="0.0">unet_binary</tspan></text><rect x="170" y="340" width="330" height="26" rx="10" ry="10" fill="#ffffff" stroke="#c9d6e4" stroke-width="2"/><text x="335.0" y="353.0" text-anchor="middle" font-family="Arial, Helvetica, sans-serif" font-size="13" font-weight="500" fill="#10263f"><tspan x="335.0" dy="0.0">smp_unet_resnet18</tspan></text><rect x="170" y="368" width="330" height="26" rx="10" ry="10" fill="#ffffff" stroke="#c9d6e4" stroke-width="2"/><text x="335.0" y="381.0" text-anchor="middle" font-family="Arial, Helvetica, sans-serif" font-size="13" font-weight="500" fill="#10263f"><tspan x="335.0" dy="0.0">smp_deeplabv3plus_resnet101</tspan></text><rect x="170" y="396" width="330" height="26" rx="10" ry="10" fill="#ffffff" stroke="#c9d6e4" stroke-width="2"/><text x="335.0" y="409.0" text-anchor="middle" font-family="Arial, Helvetica, sans-serif" font-size="13" font-weight="500" fill="#10263f"><tspan x="335.0" dy="0.0">smp_unetplusplus_resnet101</tspan></text><rect x="170" y="424" width="330" height="26" rx="10" ry="10" fill="#ffffff" stroke="#c9d6e4" stroke-width="2"/><text x="335.0" y="437.0" text-anchor="middle" font-family="Arial, Helvetica, sans-serif" font-size="13" font-weight="500" fill="#10263f"><tspan x="335.0" dy="0.0">smp_pspnet_resnet101</tspan></text><rect x="170" y="452" width="330" height="26" rx="10" ry="10" fill="#ffffff" stroke="#c9d6e4" stroke-width="2"/><text x="335.0" y="465.0" text-anchor="middle" font-family="Arial, Helvetica, sans-serif" font-size="13" font-weight="500" fill="#10263f"><tspan x="335.0" dy="0.0">smp_fpn_resnet101</tspan></text><rect x="615" y="276" width="330" height="26" rx="10" ry="10" fill="#f7efd8" stroke="#8aa4bf" stroke-width="2"/><text x="780.0" y="289.0" text-anchor="middle" font-family="Arial, Helvetica, sans-serif" font-size="14" font-weight="700" fill="#10263f"><tspan x="780.0" dy="0.0">Transformer family</tspan></text><rect x="615" y="312" width="270" height="26" rx="10" ry="10" fill="#ffffff" stroke="#c9d6e4" stroke-width="2"/><text x="750.0" y="325.0" text-anchor="middle" font-family="Arial, Helvetica, sans-serif" font-size="13" font-weight="500" fill="#10263f"><tspan x="750.0" dy="0.0">hf_segformer_b0</tspan></text><rect x="615" y="340" width="270" height="26" rx="10" ry="10" fill="#ffffff" stroke="#c9d6e4" stroke-width="2"/><text x="750.0" y="353.0" text-anchor="middle" font-family="Arial, Helvetica, sans-serif" font-size="13" font-weight="500" fill="#10263f"><tspan x="750.0" dy="0.0">hf_segformer_b2</tspan></text><rect x="615" y="368" width="270" height="26" rx="10" ry="10" fill="#ffffff" stroke="#c9d6e4" stroke-width="2"/><text x="750.0" y="381.0" text-anchor="middle" font-family="Arial, Helvetica, sans-serif" font-size="13" font-weight="500" fill="#10263f"><tspan x="750.0" dy="0.0">hf_segformer_b5</tspan></text><rect x="615" y="396" width="330" height="26" rx="10" ry="10" fill="#ffffff" stroke="#c9d6e4" stroke-width="2"/><text x="780.0" y="409.0" text-anchor="middle" font-family="Arial, Helvetica, sans-serif" font-size="13" font-weight="500" fill="#10263f"><tspan x="780.0" dy="0.0">hf_upernet_swin_large</tspan></text><rect x="1080" y="276" width="270" height="26" rx="10" ry="10" fill="#eaf6ea" stroke="#8aa4bf" stroke-width="2"/><text x="1215.0" y="289.0" text-anchor="middle" font-family="Arial, Helvetica, sans-serif" font-size="14" font-weight="700" fill="#10263f"><tspan x="1215.0" dy="0.0">Hybrid variants</tspan></text><rect x="1080" y="312" width="270" height="26" rx="10" ry="10" fill="#ffffff" stroke="#c9d6e4" stroke-width="2"/><text x="1215.0" y="325.0" text-anchor="middle" font-family="Arial, Helvetica, sans-serif" font-size="13" font-weight="500" fill="#10263f"><tspan x="1215.0" dy="0.0">transunet_tiny</tspan></text><rect x="1080" y="340" width="270" height="26" rx="10" ry="10" fill="#ffffff" stroke="#c9d6e4" stroke-width="2"/><text x="1215.0" y="353.0" text-anchor="middle" font-family="Arial, Helvetica, sans-serif" font-size="13" font-weight="500" fill="#10263f"><tspan x="1215.0" dy="0.0">segformer_mini</tspan></text><rect x="665" y="368" width="350" height="34" rx="10" ry="10" fill="#ffffff" stroke="#d8dfe8" stroke-width="2"/><text x="840.0" y="385.0" text-anchor="middle" font-family="Arial, Helvetica, sans-serif" font-size="12" font-weight="500" fill="#10263f"><tspan x="840.0" dy="0.0">Use the family overview as a manuscript figure legend.</tspan></text><rect x="70" y="450" width="1540" height="270" rx="22" ry="22" fill="#f8fbff" stroke="#a9bfd4" stroke-width="2"/><text x="94" y="484" font-family="Arial, Helvetica, sans-serif" font-size="20" font-weight="700" fill="#10263f">U-Net-style decoder flow</text><rect x="130" y="508" width="180" height="54" rx="16" ry="16" fill="#f6ecd7" stroke="#5b7a99" stroke-width="2"/><text x="220.0" y="535.0" text-anchor="middle" font-family="Arial, Helvetica, sans-serif" font-size="19" font-weight="600" fill="#10263f"><tspan x="220.0" dy="0.0">Input</tspan></text><rect x="340" y="508" width="170" height="54" rx="16" ry="16" fill="#eef5fb" stroke="#5b7a99" stroke-width="2"/><text x="425.0" y="535.0" text-anchor="middle" font-family="Arial, Helvetica, sans-serif" font-size="17" font-weight="600" fill="#10263f"><tspan x="425.0" dy="0.0">Encoder 1</tspan></text><rect x="540" y="508" width="170" height="54" rx="16" ry="16" fill="#eef5fb" stroke="#5b7a99" stroke-width="2"/><text x="625.0" y="535.0" text-anchor="middle" font-family="Arial, Helvetica, sans-serif" font-size="17" font-weight="600" fill="#10263f"><tspan x="625.0" dy="0.0">Encoder 2</tspan></text><rect x="740" y="508" width="170" height="54" rx="16" ry="16" fill="#eef5fb" stroke="#5b7a99" stroke-width="2"/><text x="825.0" y="535.0" text-anchor="middle" font-family="Arial, Helvetica, sans-serif" font-size="17" font-weight="600" fill="#10263f"><tspan x="825.0" dy="0.0">Bottleneck</tspan></text><rect x="940" y="508" width="170" height="54" rx="16" ry="16" fill="#eef5fb" stroke="#5b7a99" stroke-width="2"/><text x="1025.0" y="535.0" text-anchor="middle" font-family="Arial, Helvetica, sans-serif" font-size="17" font-weight="600" fill="#10263f"><tspan x="1025.0" dy="0.0">Decoder 2</tspan></text><rect x="1140" y="508" width="170" height="54" rx="16" ry="16" fill="#eef5fb" stroke="#5b7a99" stroke-width="2"/><text x="1225.0" y="535.0" text-anchor="middle" font-family="Arial, Helvetica, sans-serif" font-size="17" font-weight="600" fill="#10263f"><tspan x="1225.0" dy="0.0">Decoder 1</tspan></text><rect x="1340" y="508" width="170" height="54" rx="16" ry="16" fill="#eef5fb" stroke="#5b7a99" stroke-width="2"/><text x="1425.0" y="535.0" text-anchor="middle" font-family="Arial, Helvetica, sans-serif" font-size="17" font-weight="600" fill="#10263f"><tspan x="1425.0" dy="0.0">1x1 head</tspan></text><rect x="1480" y="508" width="90" height="54" rx="16" ry="16" fill="#eaf6ea" stroke="#5b7a99" stroke-width="2"/><text x="1525.0" y="535.0" text-anchor="middle" font-family="Arial, Helvetica, sans-serif" font-size="16" font-weight="600" fill="#10263f"><tspan x="1525.0" dy="0.0">Logits</tspan></text><line x1="310" y1="535" x2="340" y2="535" stroke="#5a7388" stroke-width="3" marker-end="url(#arrow)"/><line x1="510" y1="535" x2="540" y2="535" stroke="#5a7388" stroke-width="3" marker-end="url(#arrow)"/><line x1="710" y1="535" x2="740" y2="535" stroke="#5a7388" stroke-width="3" marker-end="url(#arrow)"/><line x1="910" y1="535" x2="940" y2="535" stroke="#5a7388" stroke-width="3" marker-end="url(#arrow)"/><line x1="1110" y1="535" x2="1140" y2="535" stroke="#5a7388" stroke-width="3" marker-end="url(#arrow)"/><line x1="1310" y1="535" x2="1340" y2="535" stroke="#5a7388" stroke-width="3" marker-end="url(#arrow)"/><line x1="1480" y1="535" x2="1480" y2="535" stroke="#5a7388" stroke-width="3" marker-end="url(#arrow)"/><line x1="600" y1="508" x2="1010" y2="562" stroke="#5a7388" stroke-width="3" marker-end="url(#arrow)"/><line x1="400" y1="508" x2="1210" y2="562" stroke="#5a7388" stroke-width="3" marker-end="url(#arrow)"/><rect x="530" y="582" width="620" height="48" rx="16" ry="16" fill="#ffffff" stroke="#d8dfe8" stroke-width="2"/><text x="840.0" y="606.0" text-anchor="middle" font-family="Arial, Helvetica, sans-serif" font-size="15" font-weight="500" fill="#10263f"><tspan x="840.0" dy="0.0">Skip connections preserve spatial detail during decoding.</tspan></text><rect x="70" y="760" width="1540" height="250" rx="22" ry="22" fill="#f8fbff" stroke="#a9bfd4" stroke-width="2"/><text x="94" y="794" font-family="Arial, Helvetica, sans-serif" font-size="20" font-weight="700" fill="#10263f">SegFormer-style flow</text><rect x="160" y="826" width="120" height="54" rx="16" ry="16" fill="#f6ecd7" stroke="#5b7a99" stroke-width="2"/><text x="220.0" y="853.0" text-anchor="middle" font-family="Arial, Helvetica, sans-serif" font-size="17" font-weight="600" fill="#10263f"><tspan x="220.0" dy="0.0">Input</tspan></text><rect x="340" y="826" width="160" height="54" rx="16" ry="16" fill="#eef5fb" stroke="#5b7a99" stroke-width="2"/><text x="420.0" y="853.0" text-anchor="middle" font-family="Arial, Helvetica, sans-serif" font-size="17" font-weight="600" fill="#10263f"><tspan x="420.0" dy="0.0">Patch embedding</tspan></text><rect x="520" y="826" width="110" height="54" rx="16" ry="16" fill="#eef5fb" stroke="#5b7a99" stroke-width="2"/><text x="575.0" y="853.0" text-anchor="middle" font-family="Arial, Helvetica, sans-serif" font-size="17" font-weight="600" fill="#10263f"><tspan x="575.0" dy="0.0">Stage 1</tspan></text><rect x="700" y="826" width="110" height="54" rx="16" ry="16" fill="#eef5fb" stroke="#5b7a99" stroke-width="2"/><text x="755.0" y="853.0" text-anchor="middle" font-family="Arial, Helvetica, sans-serif" font-size="17" font-weight="600" fill="#10263f"><tspan x="755.0" dy="0.0">Stage 2</tspan></text><rect x="880" y="826" width="110" height="54" rx="16" ry="16" fill="#eef5fb" stroke="#5b7a99" stroke-width="2"/><text x="935.0" y="853.0" text-anchor="middle" font-family="Arial, Helvetica, sans-serif" font-size="17" font-weight="600" fill="#10263f"><tspan x="935.0" dy="0.0">Stage 3</tspan></text><rect x="1080" y="826" width="120" height="54" rx="16" ry="16" fill="#eef5fb" stroke="#5b7a99" stroke-width="2"/><text x="1140.0" y="853.0" text-anchor="middle" font-family="Arial, Helvetica, sans-serif" font-size="17" font-weight="600" fill="#10263f"><tspan x="1140.0" dy="0.0">MLP head</tspan></text><line x1="280" y1="853" x2="340" y2="853" stroke="#5a7388" stroke-width="3" marker-end="url(#arrow)"/><line x1="500" y1="853" x2="520" y2="853" stroke="#5a7388" stroke-width="3" marker-end="url(#arrow)"/><line x1="630" y1="853" x2="700" y2="853" stroke="#5a7388" stroke-width="3" marker-end="url(#arrow)"/><line x1="810" y1="853" x2="880" y2="853" stroke="#5a7388" stroke-width="3" marker-end="url(#arrow)"/><line x1="1000" y1="853" x2="1080" y2="853" stroke="#5a7388" stroke-width="3" marker-end="url(#arrow)"/><rect x="1240" y="826" width="260" height="54" rx="16" ry="16" fill="#ffffff" stroke="#d8dfe8" stroke-width="2"/><text x="1370.0" y="844.6" text-anchor="middle" font-family="Arial, Helvetica, sans-serif" font-size="14" font-weight="500" fill="#10263f"><tspan x="1370.0" dy="0.0">Lightweight decode head</tspan><tspan x="1370.0" dy="16.8">keeps compute focused upstream.</tspan></text><rect x="70" y="1060" width="1540" height="250" rx="22" ry="22" fill="#f8fbff" stroke="#a9bfd4" stroke-width="2"/><text x="94" y="1094" font-family="Arial, Helvetica, sans-serif" font-size="20" font-weight="700" fill="#10263f">Hybrid flow</text><rect x="150" y="1130" width="120" height="54" rx="16" ry="16" fill="#f6ecd7" stroke="#5b7a99" stroke-width="2"/><text x="210.0" y="1157.0" text-anchor="middle" font-family="Arial, Helvetica, sans-serif" font-size="17" font-weight="600" fill="#10263f"><tspan x="210.0" dy="0.0">Input</tspan></text><rect x="390" y="1130" width="190" height="54" rx="16" ry="16" fill="#eef5fb" stroke="#5b7a99" stroke-width="2"/><text x="485.0" y="1157.0" text-anchor="middle" font-family="Arial, Helvetica, sans-serif" font-size="17" font-weight="600" fill="#10263f"><tspan x="485.0" dy="0.0">Convolutional stem</tspan></text><rect x="640" y="1130" width="200" height="54" rx="16" ry="16" fill="#eef5fb" stroke="#5b7a99" stroke-width="2"/><text x="740.0" y="1157.0" text-anchor="middle" font-family="Arial, Helvetica, sans-serif" font-size="17" font-weight="600" fill="#10263f"><tspan x="740.0" dy="0.0">Transformer block(s)</tspan></text><rect x="900" y="1130" width="220" height="54" rx="16" ry="16" fill="#eef5fb" stroke="#5b7a99" stroke-width="2"/><text x="1010.0" y="1157.0" text-anchor="middle" font-family="Arial, Helvetica, sans-serif" font-size="17" font-weight="600" fill="#10263f"><tspan x="1010.0" dy="0.0">Reshape to feature map</tspan></text><rect x="1160" y="1130" width="140" height="54" rx="16" ry="16" fill="#eef5fb" stroke="#5b7a99" stroke-width="2"/><text x="1230.0" y="1157.0" text-anchor="middle" font-family="Arial, Helvetica, sans-serif" font-size="17" font-weight="600" fill="#10263f"><tspan x="1230.0" dy="0.0">Decoder</tspan></text><line x1="270" y1="1157" x2="390" y2="1157" stroke="#5a7388" stroke-width="3" marker-end="url(#arrow)"/><line x1="580" y1="1157" x2="640" y2="1157" stroke="#5a7388" stroke-width="3" marker-end="url(#arrow)"/><line x1="840" y1="1157" x2="900" y2="1157" stroke="#5a7388" stroke-width="3" marker-end="url(#arrow)"/><line x1="1100" y1="1157" x2="1160" y2="1157" stroke="#5a7388" stroke-width="3" marker-end="url(#arrow)"/><rect x="1330" y="1130" width="120" height="54" rx="16" ry="16" fill="#eaf6ea" stroke="#5b7a99" stroke-width="2"/><text x="1390.0" y="1157.0" text-anchor="middle" font-family="Arial, Helvetica, sans-serif" font-size="17" font-weight="600" fill="#10263f"><tspan x="1390.0" dy="0.0">Logits</tspan></text><line x1="1300" y1="1157" x2="1330" y2="1157" stroke="#5a7388" stroke-width="3" marker-end="url(#arrow)"/><rect x="520" y="1196" width="640" height="48" rx="16" ry="16" fill="#ffffff" stroke="#d8dfe8" stroke-width="2"/><text x="840.0" y="1220.0" text-anchor="middle" font-family="Arial, Helvetica, sans-serif" font-size="15" font-weight="500" fill="#10263f"><tspan x="840.0" dy="0.0">Bridge models test whether global context improves the baseline.</tspan></text></svg>