<svg xmlns="http://www.w3.org/2000/svg" width="100%" viewBox="0 0 1600 640" role="img" aria-label="Worked Example: Conventional Baseline vs ML Model"><defs><marker id="arrow" markerWidth="12" markerHeight="12" refX="10" refY="6" orient="auto" markerUnits="strokeWidth"><path d="M 0 0 L 12 6 L 0 12 z" fill="#5a7388"/></marker></defs><rect x="0" y="0" width="100%" height="100%" fill="#ffffff"/><text x="800.0" y="34" text-anchor="middle" font-family="Arial, Helvetica, sans-serif" font-size="24" font-weight="700" fill="#10263f">Worked Example: Conventional Baseline vs ML Model</text><text x="800.0" y="60" text-anchor="middle" font-family="Arial, Helvetica, sans-serif" font-size="14" fill="#4b6075">Side-by-side comparison uses the same image and the same review criteria.</text><rect x="70" y="92" width="1460" height="500" rx="22" ry="22" fill="#f8fbff" stroke="#a9bfd4" stroke-width="2"/><text x="94" y="126" font-family="Arial, Helvetica, sans-serif" font-size="20" font-weight="700" fill="#10263f">Comparison workflow</text><rect x="590" y="130" width="420" height="64" rx="16" ry="16" fill="#f6ecd7" stroke="#b28b3e" stroke-width="2"/><text x="800.0" y="162.0" text-anchor="middle" font-family="Arial, Helvetica, sans-serif" font-size="24" font-weight="600" fill="#10263f"><tspan x="800.0" dy="0.0">Same input image</tspan></text><line x1="800" y1="194" x2="800" y2="230" stroke="#5a7388" stroke-width="3" marker-end="url(#arrow)"/><rect x="110" y="240" width="630" height="260" rx="22" ry="22" fill="#fbfdff" stroke="#a9bfd4" stroke-width="2"/><text x="134" y="274" font-family="Arial, Helvetica, sans-serif" font-size="20" font-weight="700" fill="#10263f">Conventional</text><rect x="860" y="240" width="630" height="260" rx="22" ry="22" fill="#fbfdff" stroke="#a9bfd4" stroke-width="2"/><text x="884" y="274" font-family="Arial, Helvetica, sans-serif" font-size="20" font-weight="700" fill="#10263f">ML model</text><rect x="190" y="290" width="470" height="56" rx="16" ry="16" fill="#e8f0fb" stroke="#5b7a99" stroke-width="2"/><text x="425.0" y="318.0" text-anchor="middle" font-family="Arial, Helvetica, sans-serif" font-size="20" font-weight="600" fill="#10263f"><tspan x="425.0" dy="0.0">Baseline</tspan></text><rect x="190" y="370" width="470" height="56" rx="16" ry="16" fill="#eef5fb" stroke="#5b7a99" stroke-width="2"/><text x="425.0" y="398.0" text-anchor="middle" font-family="Arial, Helvetica, sans-serif" font-size="20" font-weight="600" fill="#10263f"><tspan x="425.0" dy="0.0">Mask + overlay</tspan></text><rect x="190" y="450" width="470" height="56" rx="16" ry="16" fill="#eef5fb" stroke="#5b7a99" stroke-width="2"/><text x="425.0" y="478.0" text-anchor="middle" font-family="Arial, Helvetica, sans-serif" font-size="20" font-weight="600" fill="#10263f"><tspan x="425.0" dy="0.0">Rule-based interpretation</tspan></text><rect x="940" y="290" width="470" height="56" rx="16" ry="16" fill="#f7efd8" stroke="#5b7a99" stroke-width="2"/><text x="1175.0" y="318.0" text-anchor="middle" font-family="Arial, Helvetica, sans-serif" font-size="20" font-weight="600" fill="#10263f"><tspan x="1175.0" dy="0.0">Trained model</tspan></text><rect x="940" y="370" width="470" height="56" rx="16" ry="16" fill="#eef5fb" stroke="#5b7a99" stroke-width="2"/><text x="1175.0" y="398.0" text-anchor="middle" font-family="Arial, Helvetica, sans-serif" font-size="20" font-weight="600" fill="#10263f"><tspan x="1175.0" dy="0.0">Mask + overlay</tspan></text><rect x="940" y="450" width="470" height="56" rx="16" ry="16" fill="#eef5fb" stroke="#5b7a99" stroke-width="2"/><text x="1175.0" y="478.0" text-anchor="middle" font-family="Arial, Helvetica, sans-serif" font-size="20" font-weight="600" fill="#10263f"><tspan x="1175.0" dy="0.0">Learned interpretation</tspan></text><rect x="500" y="542" width="600" height="56" rx="16" ry="16" fill="#eaf6ea" stroke="#5d8d5d" stroke-width="2"/><text x="800.0" y="570.0" text-anchor="middle" font-family="Arial, Helvetica, sans-serif" font-size="18" font-weight="600" fill="#10263f"><tspan x="800.0" dy="0.0">Compare boundaries, counts, morphology, and failure modes</tspan></text><rect x="520" y="610" width="560" height="40" rx="16" ry="16" fill="#ffffff" stroke="#d8dfe8" stroke-width="2"/><text x="800.0" y="630.0" text-anchor="middle" font-family="Arial, Helvetica, sans-serif" font-size="15" font-weight="500" fill="#10263f"><tspan x="800.0" dy="0.0">Read metrics together with the images</tspan></text><line x1="800" y1="484" x2="800" y2="542" stroke="#5a7388" stroke-width="3" marker-end="url(#arrow)"/><line x1="660" y1="346" x2="660" y2="370" stroke="#5a7388" stroke-width="3" marker-end="url(#arrow)"/><line x1="660" y1="426" x2="660" y2="450" stroke="#5a7388" stroke-width="3" marker-end="url(#arrow)"/><line x1="1340" y1="346" x2="1340" y2="370" stroke="#5a7388" stroke-width="3" marker-end="url(#arrow)"/><line x1="1340" y1="426" x2="1340" y2="450" stroke="#5a7388" stroke-width="3" marker-end="url(#arrow)"/></svg>